# xmcd
#
# Track frame offsets: 
#        150
#        5636
#        37960
#        60278
#        87949
#        113884
#        143324
#        167031
#
# Disc length: 2647 seconds
#
# Revision: 0
# Processed by: cddbd v1.5.2PL0 Copyright (c) Steve Scherf et al.
# Submitted via: ExactAudioCopy v1.3
#
DISCID=560a5508
DTITLE=Vince Gill - Crossroads Guitar Festival 2010
DYEAR=2010
DGENRE=Country
TTITLE0=Introduction
TTITLE1=One More Last Chance (with Keb Mo)
TTITLE2=Mystery Train (with James Burton)
TTITLE3=The Door (with Keb Mo)
TTITLE4=Luxury Liner (with Albert Lee and James Burton)
TTITLE5=Soon As I Get Paid (with Keb Mo, Albert Lee and James Burton)
TTITLE6=Whenever You Come Around (with Keb Mo, Albert Lee and James Burt
TTITLE6=on)
TTITLE7=Lay Down Sally (with Sheryl Crow, Earl Klugh, Albert Lee and Jam
TTITLE7=es Burton)
EXTD=
EXTT0=
EXTT1=
EXTT2=
EXTT3=
EXTT4=
EXTT5=
EXTT6=
EXTT7=
PLAYORDER=
